<svg fill="none" viewBox="-0.5 0 25 25" xmlns="http://www.w3.org/2000/svg"><path stroke="#000000" stroke-linecap="round" stroke-linejoin="round" stroke-width="1.5" d="M18.889 10.25a2 2 0 0 1-1.71-3l.12-.21a1.87 1.87 0 0 0-.79-2.63v0a2.16 2.16 0 0 0-2.79.84v0a2 2 0 0 1-3.42 0 2.16 2.16 0 0 0-2.79-.84v0a1.87 1.87 0 0 0-.79 2.63l.12.21a2 2 0 0 1-1.71 3 2.07 2.07 0 0 0-2.08 1.66 2 2 0 0 0 2 2.34h.12a2 2 0 0 1 1.71 3l-.05.08a2.05 2.05 0 0 0 .72 2.76v0a2 2 0 0 0 2.71-.7l.02-.14a2 2 0 0 1 3.42 0l.07.14a2 2 0 0 0 2.72.7 2 2 0 0 0 .7-2.71l-.06-.11a2 2 0 0 1 1.71-3h.12a2 2 0 0 0 2-2.34 2.07 2.07 0 0 0-2.07-1.68"/><path stroke="#000000" stroke-linecap="round" stroke-linejoin="round" stroke-width="1.5" d="M12 14.79a2.5 2.5 0 1 0 0-5 2.5 2.5 0 0 0 0 5"/></svg>